<svg xmlns="http://www.w3.org/2000/svg" xmlns:xlink="http://www.w3.org/1999/xlink" id="Layer_1" x="0" y="0" version="1.1" viewBox="0 0 22 22" xml:space="preserve" style="enable-background:new 0 0 22 22"><style type="text/css">.st0{fill:#434343}.st1{fill:#0a0a0a}.st2{fill:none}.st3{fill:#4caf50}</style><title>edit-circle-selected</title><ellipse cx="15.5" cy="8.1" class="st0" rx="0" ry=".2"/><circle cx="11" cy="11" r="11" class="st1"/><path d="M10.3,5.2c-0.5,0.1-1,0.2-1.5,0.4l1.5,2.6V5.2z" class="st2"/><path d="M7.5,6.4C7.1,6.7,6.7,7.1,6.4,7.5L9,9L7.5,6.4z" class="st2"/><path d="M5.6,8.8c-0.2,0.5-0.3,1-0.4,1.5h3L5.6,8.8z" class="st2"/><path d="M13.3,5.7c-0.5-0.2-1-0.3-1.5-0.4v3L13.3,5.7z" class="st2"/><path d="M16.8,10.3c-0.1-0.5-0.2-1-0.4-1.5l-2.6,1.5H16.8z" class="st2"/><path d="M15.6,7.6c-0.3-0.4-0.7-0.8-1.1-1.1L13.1,9L15.6,7.6z" class="st2"/><path d="M16.3,13.3c0.2-0.5,0.3-1,0.4-1.4h-2.9L16.3,13.3z" class="st2"/><path d="M5.3,11.8c0.1,0.5,0.2,1,0.4,1.5l2.6-1.5H5.3z" class="st2"/><path d="M11.7,16.8c0.5-0.1,1-0.2,1.4-0.4l-1.4-2.5V16.8z" class="st2"/><path d="M8.8,16.4c0.5,0.2,0.9,0.3,1.4,0.4V14L8.8,16.4z" class="st2"/><path d="M6.4,14.5c0.3,0.4,0.7,0.8,1.1,1.1L9,13.1L6.4,14.5z" class="st2"/><path d="M14.5,15.6c0.4-0.3,0.8-0.6,1.1-1l-2.5-1.5L14.5,15.6z" class="st2"/><g><path d="M13.9,4.3l1.8-3.2c-1.1-0.5-2.5-0.9-3.7-1v3.7C12.6,3.8,13.2,4.1,13.9,4.3z" class="st3"/><path d="M15.5,16.7l1.8,3.2c1-0.7,1.9-1.6,2.8-2.8l-3.2-1.8C16.3,16,15.9,16.4,15.5,16.7z" class="st3"/><path d="M11.9,18.2v3.7c1.3-0.1,2.6-0.3,3.7-1l-1.8-3.2C13.2,17.9,12.6,18.1,11.9,18.2z" class="st3"/><path d="M16.7,6.8l3.3-1.9c-0.7-1.1-1.6-1.9-2.8-2.8l-1.8,3.3C15.9,5.8,16.3,6.2,16.7,6.8z" class="st3"/><path d="M10.1,3.8V0.1c-1.1,0.1-2.5,0.3-3.7,1l1.8,3.2C8.9,4.2,9.5,3.9,10.1,3.8z" class="st3"/><path d="M18.2,10.1h3.7c-0.1-1.1-0.3-2.5-1-3.7l-3.2,1.8C17.9,8.9,18.1,9.5,18.2,10.1z" class="st3"/><path d="M8.2,17.7l-1.8,3.2c1.1,0.5,2.4,0.9,3.6,1v-3.7C9.4,18.1,8.8,17.9,8.2,17.7z" class="st3"/><path d="M18.2,12.1c-0.1,0.6-0.2,1.3-0.5,1.7l3.2,1.8c0.5-1.1,0.9-2.5,1-3.7L18.2,12.1z" class="st3"/><path d="M4.3,8.2L1.1,6.4c-0.5,1.1-0.9,2.5-1,3.7h3.7C3.9,9.4,4.1,8.9,4.3,8.2z" class="st3"/><path d="M3.8,12H0.1c0.1,1.3,0.5,2.6,1,3.7l3.2-1.8C4.1,13.3,3.8,12.6,3.8,12z" class="st3"/><path d="M6.6,5.3L4.7,2.1C3.5,2.7,2.7,3.7,1.9,4.8l3.3,1.8C5.6,6.1,6.1,5.6,6.6,5.3z" class="st3"/><path d="M5.3,15.4L2,17.2c0.7,1.1,1.7,1.9,2.8,2.8l1.8-3.2C6.1,16.4,5.6,15.9,5.3,15.4z" class="st3"/></g><circle cx="11" cy="11" r="9.2" class="st1"/></svg>